<svg width="600" height="92" viewBox="0 0 600 92" fill="none" xmlns="http://www.w3.org/2000/svg">
<path d="M581.279 8.98379C597.545 21.71 603.813 41.5328 597.698 60.3073C591.809 78.3851 575.068 91.107 556.058 91.9507C536.241 92.8302 518.56 81.8763 510.972 64.02C502.97 45.1898 508.244 23.6659 524.054 10.6326C540.459 -2.89105 562.278 -3.59475 581.279 8.98379ZM540.722 18.5977C532.003 22.5052 526.599 29.1483 524.37 38.3575C520.851 52.8972 527.343 67.1222 540.2 73.147C553.117 79.1996 569.411 75.4688 577.817 64.534C586.257 53.5546 585.859 35.9931 576.354 25.7763C566.601 15.2915 554.494 13.9611 540.722 18.5977Z" fill="#1A2359"/>
<path d="M320.892 67.4712C320.892 75.4699 320.892 83.0318 320.892 90.9841C315.618 90.9841 310.604 90.9841 305.143 90.9841C305.038 89.5975 304.841 88.2088 304.84 86.8199C304.822 59.7442 304.893 32.668 304.75 5.593C304.73 1.86435 305.775 0.971212 309.584 0.452032C320.725 -1.06647 328.314 2.43291 333.438 12.7832C336.765 19.5034 341.849 25.3639 346.171 31.5924C346.958 32.7271 347.866 33.7791 349.562 35.9488C349.76 33.1564 349.952 31.6663 349.957 30.1755C349.989 21.587 350.055 12.9974 349.935 4.41054C349.895 1.61284 350.829 0.651651 353.709 0.571921C366.072 0.229747 366.069 0.14319 366.069 12.5101C366.069 36.82 366.069 61.1301 366.069 85.4401C366.069 87.168 366.069 88.896 366.069 91.3332C361.217 91.3332 356.731 91.5069 352.282 91.1797C351.44 91.1177 350.126 89.0889 350.085 87.9304C349.862 81.6786 350.071 75.4125 349.904 69.1573C349.856 67.356 349.506 65.2734 348.531 63.8311C340.204 51.5134 331.697 39.3156 323.261 27.07C322.931 26.5902 322.775 25.9907 322.539 25.4469C321.99 25.6375 321.441 25.8282 320.892 26.0188C320.892 39.6906 320.892 53.3624 320.892 67.4712Z" fill="#1A2359"/>
<path d="M231.892 50.8688C231.892 35.4346 231.977 20.4365 231.829 5.44073C231.795 2.0014 232.583 0.500872 236.406 0.55207C250.448 0.74001 264.495 0.697024 278.538 0.573136C281.772 0.544657 282.798 1.61672 282.82 4.86043C282.899 16.6151 283.013 16.6139 271.212 16.6145C264.921 16.6148 258.627 16.7399 252.341 16.5659C249.229 16.4799 247.75 17.3121 247.919 20.7011C248.144 25.2039 248.079 29.7288 247.944 34.2385C247.858 37.0979 249.062 38.08 251.849 38.0363C258.723 37.9283 265.602 38.108 272.475 37.9686C275.358 37.9101 276.439 38.9996 276.296 41.802C276.156 44.5614 276.119 47.3437 276.309 50.0972C276.527 53.2545 275.085 54.1124 272.145 54.049C265.565 53.9069 258.974 54.1638 252.398 53.9493C248.892 53.8349 247.754 55.1501 247.92 58.5142C248.135 62.8719 248.072 67.2507 247.943 71.615C247.86 74.4259 248.961 75.4952 251.804 75.4608C260.581 75.3547 269.363 75.5879 278.135 75.3572C281.882 75.2587 283.035 76.6381 282.798 80.1647C282.565 83.6262 282.747 87.1154 282.747 90.9827C265.778 90.9827 249.198 90.9827 231.892 90.9827C231.892 77.6586 231.892 64.4821 231.892 50.8688Z" fill="#1A2359"/>
<path d="M13.269 0.626547C24.5339 0.627453 35.363 0.735823 46.1878 0.567349C49.7075 0.512525 51.0517 1.48273 51.0291 5.22157C50.96 16.6117 51.1099 16.6115 39.4611 16.6131C32.8769 16.6139 26.2912 16.699 19.7091 16.583C17.0504 16.5362 16.0578 17.5457 16.125 20.1594C16.2446 24.8164 16.2964 29.4842 16.1081 34.1366C15.979 37.3282 17.4476 38.1011 20.3292 38.0477C27.0574 37.923 33.791 38.0942 40.5196 37.9803C43.3418 37.9324 44.339 39.0268 44.4703 41.8171C45.0439 54.0072 45.1115 54.0019 32.9016 54.0051C28.3658 54.0063 23.8146 53.8211 19.3053 54.1689C18.1912 54.2548 16.3923 56.0333 16.3149 57.1318C15.9781 61.9143 16.2953 66.7383 16.1064 71.5367C15.9823 74.6906 17.3703 75.5131 20.2886 75.4732C29.0659 75.3531 37.8478 75.5359 46.6241 75.3836C49.8058 75.3284 51.2196 76.3149 50.9808 79.613C50.7816 82.3656 50.8312 85.1493 50.9716 87.909C51.0924 90.2842 50.242 91.3883 47.7666 91.3806C32.6965 91.334 17.6262 91.3505 2.55602 91.3109C1.8668 91.3091 1.17847 90.97 0.089487 90.6823C0.089487 89.2218 0.0895004 87.7882 0.0895004 86.3548C0.0894065 59.5596 0.174043 32.7639 0.000469871 5.96986C-0.0264562 1.81365 1.0961 0.0922748 5.37515 0.576469C7.83078 0.854378 10.3442 0.6266 13.269 0.626547Z" fill="#1A2359"/>
<path d="M94.9311 37.4654C97.8591 38.5002 100.062 38.6511 99.8307 34.914C99.5911 31.0356 101.993 31.1566 104.711 31.5305C118.988 33.4951 130.031 46.0441 130.218 60.5492C130.414 75.7705 119.943 89.0151 105.232 90.7264C96.1293 91.7852 86.8343 91.3015 77.6276 91.2361C76.6409 91.2291 75.6234 89.4242 74.7193 88.3693C74.4995 88.1128 74.6777 87.5226 74.6642 87.0861C74.3045 75.4299 74.3044 75.4462 85.9251 75.4226C91.19 75.4119 96.4768 75.6055 101.714 75.1994C108.914 74.6413 113.33 70.1108 114.057 63.231C114.818 56.0284 111.499 50.1662 105.539 48.1225C102.431 47.0568 100.02 46.8361 100.288 51.3608C100.492 54.8142 97.9952 54.4393 95.7358 54.1397C82.9895 52.4496 72.8497 40.5929 73.0192 27.5936C73.1975 13.9195 83.085 2.22786 96.1584 1.06529C103.856 0.380786 111.65 0.624243 119.394 0.778317C120.448 0.799276 121.482 2.7135 122.477 3.79495C122.624 3.95553 122.513 4.35924 122.509 4.65027C122.304 19.2968 124.405 16.2766 111.04 16.6036C107.531 16.6894 104.017 16.5717 100.508 16.6557C94.4756 16.8 91.0832 19.0556 89.6826 23.7234C88.0213 29.2603 89.7602 34.0766 94.9311 37.4654Z" fill="#1A2359"/>
<path d="M166.041 91.3846C153.705 91.3849 153.806 91.387 154.049 79.6125C154.116 76.3711 155.242 75.3065 158.45 75.373C165.758 75.5244 173.09 75.678 180.381 75.2675C191.856 74.6214 197.654 62.2036 191.143 52.7044C188.748 49.2101 185.278 47.5931 180.66 47.8195C180.485 48.0431 180.195 48.2508 180.157 48.4966C179.176 54.9474 178.694 55.255 172.201 53.4968C159.476 50.0511 151.424 38.1056 152.692 24.5562C153.866 12.0059 164.118 1.76542 176.898 0.929075C184.182 0.452454 191.517 0.584395 198.82 0.776867C199.893 0.805133 201.723 2.61061 201.838 3.73264C203.161 16.6132 203.091 16.6061 190.253 16.6249C186.014 16.6312 181.748 16.4568 177.542 16.858C172.14 17.3731 168.997 21.0466 168.631 26.5251C168.248 32.2588 170.908 36.6017 175.501 37.8641C177.747 38.4814 179.47 38.2216 179.202 35.4263C178.78 31.0307 181.408 31.1209 184.464 31.5774C198.875 33.7289 209.879 46.6584 209.718 61.2688C209.551 76.4656 198.702 89.2053 183.999 90.8993C178.216 91.5655 172.32 91.2519 166.041 91.3846Z" fill="#1A2359"/>
<path d="M389.075 54.3758C384.406 25.7763 404.305 1.66397 433.039 0.68913C436.253 0.580121 439.481 0.786886 442.685 0.584121C445.829 0.385142 447.099 1.44798 447.184 4.747C447.487 16.4858 447.589 16.5337 435.71 16.6089C423.005 16.6894 412.571 21.02 407.243 33.1321C402.233 44.523 403.42 55.6758 411.459 65.5234C416.976 72.2813 424.641 74.8761 433.157 75.3281C434.616 75.4056 436.089 75.3034 437.539 75.4483C440.621 75.7563 446.026 75.5206 446.348 76.6611C447.488 80.7082 446.979 85.2423 446.855 89.5851C446.838 90.1905 445.51 91.2229 444.736 91.2747C426.569 92.4897 409.645 89.5836 398.149 73.884C394.056 68.2949 392.078 61.1715 389.075 54.3758Z" fill="#1A2359"/>
<path d="M485.368 9.85158C485.368 35.4353 485.271 60.5908 485.463 85.7441C485.495 90.0294 484.519 91.6241 479.925 91.5072C469.199 91.2344 469.194 91.4595 469.194 80.9135C469.194 56.195 469.191 31.4765 469.196 6.75794C469.197 0.603519 469.207 0.603466 475.574 0.593439C475.866 0.592959 476.158 0.592052 476.45 0.593599C486.708 0.647997 485.249 -0.272713 485.368 9.85158Z" fill="#1A2359"/>
</svg>
